# xmcd
#
# Track frame offsets: 
#        150
#        11480
#        28290
#        44500
#        54712
#        67787
#        85929
#        107657
#        127629
#        145420
#        159992
#        181270
#        203610
#        225265
#        240317
#
# Disc length: 3390 seconds
#
# Revision: 0
# Processed by: cddbd v1.5.2PL0 Copyright (c) Steve Scherf et al.
# Submitted via: ExactAudioCopy v1.0b3
#
DISCID=b40d3c0f
DTITLE=Various Artist - Arquivo
DYEAR=2002
DGENRE=Pop
TTITLE0=Cazuza - Codinome Beija-Flor
TTITLE1=Djavan - Flor De Lis
TTITLE2=Rita Lee - Doce Vampiro
TTITLE3=Barão Vermelho - Todo O Amor Que Houver Nessa Vida
TTITLE4=Jorge Benjor - Waldomiro Pena
TTITLE5=Tim Maia - Só Você
TTITLE6=Azimüth - Linha Do Horizonte
TTITLE7=Tom Jobim - Anos Dourados (Instrumental)
TTITLE8=Ivan Lins - Vitoriosa
TTITLE9=Guilherme Arantes - Pedacinhos (Bye Bye So Long)
TTITLE10=Flávio Venturini - Espanhola
TTITLE11=Emílio Santiago - Saigon
TTITLE12=Elis Regina - Aprendendo A Jogar
TTITLE13=Sandra De Sá - Enredo Do Meu Samba
TTITLE14=Toquinho and Jorge Ben - Carolina Carol Bela
EXTD=
EXTT0=
EXTT1=
EXTT2=
EXTT3=
EXTT4=
EXTT5=
EXTT6=
EXTT7=
EXTT8=
EXTT9=
EXTT10=
EXTT11=
EXTT12=
EXTT13=
EXTT14=
PLAYORDER=
